<svg width="419" height="96" viewBox="0 0 419 96" fill="none" xmlns="http://www.w3.org/2000/svg">
<path d="M4.04545 15.4545H16.1818L29 46.7273H29.5455L42.3636 15.4545H54.5V62H44.9545V31.7045H44.5682L32.5227 61.7727H26.0227L13.9773 31.5909H13.5909V62H4.04545V15.4545ZM78.3352 62.6818C74.7443 62.6818 71.6534 61.9545 69.0625 60.5C66.4867 59.0303 64.5019 56.9545 63.108 54.2727C61.714 51.5758 61.017 48.3864 61.017 44.7045C61.017 41.1136 61.714 37.9621 63.108 35.25C64.5019 32.5379 66.464 30.4242 68.9943 28.9091C71.5398 27.3939 74.5246 26.6364 77.9489 26.6364C80.2519 26.6364 82.3958 27.0076 84.3807 27.75C86.3807 28.4773 88.1231 29.5758 89.608 31.0455C91.108 32.5152 92.2746 34.3636 93.108 36.5909C93.9413 38.803 94.358 41.3939 94.358 44.3636V47.0227H64.8807V41.0227H85.2443C85.2443 39.6288 84.9413 38.3939 84.3352 37.3182C83.7292 36.2424 82.8883 35.4015 81.8125 34.7955C80.7519 34.1742 79.517 33.8636 78.108 33.8636C76.6383 33.8636 75.3352 34.2045 74.1989 34.8864C73.0777 35.553 72.1989 36.4545 71.5625 37.5909C70.9261 38.7121 70.6004 39.9621 70.5852 41.3409V47.0455C70.5852 48.7727 70.9034 50.2652 71.5398 51.5227C72.1913 52.7803 73.108 53.75 74.2898 54.4318C75.4716 55.1136 76.8731 55.4545 78.4943 55.4545C79.5701 55.4545 80.5549 55.303 81.4489 55C82.3428 54.697 83.108 54.2424 83.7443 53.6364C84.3807 53.0303 84.8655 52.2879 85.1989 51.4091L94.1534 52C93.6989 54.1515 92.767 56.0303 91.358 57.6364C89.964 59.2273 88.161 60.4697 85.9489 61.3636C83.7519 62.2424 81.214 62.6818 78.3352 62.6818ZM113.54 62.5682C110.888 62.5682 108.487 61.8864 106.335 60.5227C104.199 59.1439 102.502 57.1212 101.244 54.4545C100.002 51.7727 99.3807 48.4848 99.3807 44.5909C99.3807 40.5909 100.025 37.2652 101.312 34.6136C102.6 31.947 104.313 29.9545 106.449 28.6364C108.6 27.303 110.956 26.6364 113.517 26.6364C115.472 26.6364 117.1 26.9697 118.403 27.6364C119.722 28.2879 120.782 29.1061 121.585 30.0909C122.403 31.0606 123.025 32.0152 123.449 32.9545H123.744V15.4545H133.403V62H123.858V56.4091H123.449C122.994 57.3788 122.35 58.3409 121.517 59.2955C120.699 60.2348 119.631 61.0152 118.312 61.6364C117.009 62.2576 115.419 62.5682 113.54 62.5682ZM116.608 54.8636C118.169 54.8636 119.487 54.4394 120.562 53.5909C121.653 52.7273 122.487 51.5227 123.062 49.9773C123.653 48.4318 123.949 46.6212 123.949 44.5455C123.949 42.4697 123.661 40.6667 123.085 39.1364C122.509 37.6061 121.676 36.4242 120.585 35.5909C119.494 34.7576 118.169 34.3409 116.608 34.3409C115.017 34.3409 113.676 34.7727 112.585 35.6364C111.494 36.5 110.669 37.697 110.108 39.2273C109.547 40.7576 109.267 42.5303 109.267 44.5455C109.267 46.5758 109.547 48.3712 110.108 49.9318C110.684 51.4773 111.509 52.6894 112.585 53.5682C113.676 54.4318 115.017 54.8636 116.608 54.8636ZM141.364 62V27.0909H151.045V62H141.364ZM146.227 22.5909C144.788 22.5909 143.553 22.1136 142.523 21.1591C141.508 20.1894 141 19.0303 141 17.6818C141 16.3485 141.508 15.2045 142.523 14.25C143.553 13.2803 144.788 12.7955 146.227 12.7955C147.667 12.7955 148.894 13.2803 149.909 14.25C150.939 15.2045 151.455 16.3485 151.455 17.6818C151.455 19.0303 150.939 20.1894 149.909 21.1591C148.894 22.1136 147.667 22.5909 146.227 22.5909ZM174.574 62.6818C170.998 62.6818 167.922 61.9242 165.347 60.4091C162.786 58.8788 160.816 56.7576 159.438 54.0455C158.074 51.3333 157.392 48.2121 157.392 44.6818C157.392 41.1061 158.081 37.9697 159.46 35.2727C160.854 32.5606 162.831 30.447 165.392 28.9318C167.953 27.4015 170.998 26.6364 174.528 26.6364C177.574 26.6364 180.241 27.1894 182.528 28.2955C184.816 29.4015 186.627 30.9545 187.96 32.9545C189.294 34.9545 190.028 37.303 190.165 40H181.028C180.771 38.2576 180.089 36.8561 178.983 35.7955C177.892 34.7197 176.46 34.1818 174.688 34.1818C173.188 34.1818 171.877 34.5909 170.756 35.4091C169.65 36.2121 168.786 37.3864 168.165 38.9318C167.544 40.4773 167.233 42.3485 167.233 44.5455C167.233 46.7727 167.536 48.6667 168.142 50.2273C168.763 51.7879 169.634 52.9773 170.756 53.7955C171.877 54.6136 173.188 55.0227 174.688 55.0227C175.794 55.0227 176.786 54.7955 177.665 54.3409C178.559 53.8864 179.294 53.2273 179.869 52.3636C180.46 51.4848 180.847 50.4318 181.028 49.2045H190.165C190.013 51.8712 189.286 54.2197 187.983 56.25C186.695 58.2652 184.915 59.8409 182.642 60.9773C180.369 62.1136 177.68 62.6818 174.574 62.6818ZM206.318 62.6591C204.091 62.6591 202.106 62.2727 200.364 61.5C198.621 60.7121 197.242 59.553 196.227 58.0227C195.227 56.4773 194.727 54.553 194.727 52.25C194.727 50.3106 195.083 48.6818 195.795 47.3636C196.508 46.0455 197.477 44.9848 198.705 44.1818C199.932 43.3788 201.326 42.7727 202.886 42.3636C204.462 41.9545 206.114 41.6667 207.841 41.5C209.871 41.2879 211.508 41.0909 212.75 40.9091C213.992 40.7121 214.894 40.4242 215.455 40.0455C216.015 39.6667 216.295 39.1061 216.295 38.3636V38.2273C216.295 36.7879 215.841 35.6742 214.932 34.8864C214.038 34.0985 212.765 33.7045 211.114 33.7045C209.371 33.7045 207.985 34.0909 206.955 34.8636C205.924 35.6212 205.242 36.5758 204.909 37.7273L195.955 37C196.409 34.8788 197.303 33.0455 198.636 31.5C199.97 29.9394 201.689 28.7424 203.795 27.9091C205.917 27.0606 208.371 26.6364 211.159 26.6364C213.098 26.6364 214.955 26.8636 216.727 27.3182C218.515 27.7727 220.098 28.4773 221.477 29.4318C222.871 30.3864 223.97 31.6136 224.773 33.1136C225.576 34.5985 225.977 36.3788 225.977 38.4545V62H216.795V57.1591H216.523C215.962 58.25 215.212 59.2121 214.273 60.0455C213.333 60.8636 212.205 61.5076 210.886 61.9773C209.568 62.4318 208.045 62.6591 206.318 62.6591ZM209.091 55.9773C210.515 55.9773 211.773 55.697 212.864 55.1364C213.955 54.5606 214.811 53.7879 215.432 52.8182C216.053 51.8485 216.364 50.75 216.364 49.5227V45.8182C216.061 46.0152 215.644 46.197 215.114 46.3636C214.598 46.5152 214.015 46.6591 213.364 46.7955C212.712 46.9167 212.061 47.0303 211.409 47.1364C210.758 47.2273 210.167 47.3106 209.636 47.3864C208.5 47.553 207.508 47.8182 206.659 48.1818C205.811 48.5455 205.152 49.0379 204.682 49.6591C204.212 50.2652 203.977 51.0227 203.977 51.9318C203.977 53.25 204.455 54.2576 205.409 54.9545C206.379 55.6364 207.606 55.9773 209.091 55.9773ZM243.17 15.4545V62H233.489V15.4545H243.17ZM257.812 62L248.312 27.0909H258.108L263.517 50.5455H263.835L269.472 27.0909H279.085L284.812 50.4091H285.108L290.426 27.0909H300.199L290.722 62H280.472L274.472 40.0455H274.04L268.04 62H257.812ZM315.318 62.6591C313.091 62.6591 311.106 62.2727 309.364 61.5C307.621 60.7121 306.242 59.553 305.227 58.0227C304.227 56.4773 303.727 54.553 303.727 52.25C303.727 50.3106 304.083 48.6818 304.795 47.3636C305.508 46.0455 306.477 44.9848 307.705 44.1818C308.932 43.3788 310.326 42.7727 311.886 42.3636C313.462 41.9545 315.114 41.6667 316.841 41.5C318.871 41.2879 320.508 41.0909 321.75 40.9091C322.992 40.7121 323.894 40.4242 324.455 40.0455C325.015 39.6667 325.295 39.1061 325.295 38.3636V38.2273C325.295 36.7879 324.841 35.6742 323.932 34.8864C323.038 34.0985 321.765 33.7045 320.114 33.7045C318.371 33.7045 316.985 34.0909 315.955 34.8636C314.924 35.6212 314.242 36.5758 313.909 37.7273L304.955 37C305.409 34.8788 306.303 33.0455 307.636 31.5C308.97 29.9394 310.689 28.7424 312.795 27.9091C314.917 27.0606 317.371 26.6364 320.159 26.6364C322.098 26.6364 323.955 26.8636 325.727 27.3182C327.515 27.7727 329.098 28.4773 330.477 29.4318C331.871 30.3864 332.97 31.6136 333.773 33.1136C334.576 34.5985 334.977 36.3788 334.977 38.4545V62H325.795V57.1591H325.523C324.962 58.25 324.212 59.2121 323.273 60.0455C322.333 60.8636 321.205 61.5076 319.886 61.9773C318.568 62.4318 317.045 62.6591 315.318 62.6591ZM318.091 55.9773C319.515 55.9773 320.773 55.697 321.864 55.1364C322.955 54.5606 323.811 53.7879 324.432 52.8182C325.053 51.8485 325.364 50.75 325.364 49.5227V45.8182C325.061 46.0152 324.644 46.197 324.114 46.3636C323.598 46.5152 323.015 46.6591 322.364 46.7955C321.712 46.9167 321.061 47.0303 320.409 47.1364C319.758 47.2273 319.167 47.3106 318.636 47.3864C317.5 47.553 316.508 47.8182 315.659 48.1818C314.811 48.5455 314.152 49.0379 313.682 49.6591C313.212 50.2652 312.977 51.0227 312.977 51.9318C312.977 53.25 313.455 54.2576 314.409 54.9545C315.379 55.6364 316.606 55.9773 318.091 55.9773Z" fill="black"/>
<path d="M369 65.7233V67.6666C369 71.6449 370.58 75.4602 373.393 78.2732C376.206 81.0863 380.022 82.6666 384 82.6666C387.978 82.6666 391.794 81.0863 394.607 78.2732C397.42 75.4602 399 71.6449 399 67.6666V62.1C396.775 61.3136 394.9 59.766 393.705 57.7306C392.511 55.6952 392.075 53.3032 392.474 50.9773C392.873 48.6514 394.081 46.5415 395.885 45.0204C397.69 43.4993 399.973 42.665 402.333 42.665C404.693 42.665 406.977 43.4993 408.781 45.0204C410.585 46.5415 411.794 48.6514 412.193 50.9773C412.592 53.3032 412.155 55.6952 410.961 57.7306C409.767 59.766 407.892 61.3136 405.667 62.1V67.6666C405.667 73.413 403.384 78.924 399.321 82.9873C395.257 87.0506 389.746 89.3333 384 89.3333C378.254 89.3333 372.743 87.0506 368.679 82.9873C364.616 78.924 362.333 73.413 362.333 67.6666V65.7233C357.673 64.9342 353.443 62.5207 350.392 58.9105C347.341 55.3003 345.667 50.7265 345.667 46V29.3333C345.667 27.5652 346.369 25.8695 347.619 24.6192C348.869 23.369 350.565 22.6666 352.333 22.6666H355.667C356.551 22.6666 357.399 23.0178 358.024 23.6429C358.649 24.2681 359 25.1159 359 26C359 26.884 358.649 27.7319 358.024 28.357C357.399 28.9821 356.551 29.3333 355.667 29.3333H352.333V46C352.333 49.5362 353.738 52.9276 356.239 55.428C358.739 57.9285 362.13 59.3333 365.667 59.3333C369.203 59.3333 372.594 57.9285 375.095 55.428C377.595 52.9276 379 49.5362 379 46V29.3333H375.667C374.783 29.3333 373.935 28.9821 373.31 28.357C372.684 27.7319 372.333 26.884 372.333 26C372.333 25.1159 372.684 24.2681 373.31 23.6429C373.935 23.0178 374.783 22.6666 375.667 22.6666H379C380.768 22.6666 382.464 23.369 383.714 24.6192C384.964 25.8695 385.667 27.5652 385.667 29.3333V46C385.666 50.7265 383.992 55.3003 380.941 58.9105C377.891 62.5207 373.66 64.9342 369 65.7233ZM402.333 56C403.217 56 404.065 55.6488 404.69 55.0236C405.315 54.3985 405.667 53.5507 405.667 52.6666C405.667 51.7826 405.315 50.9347 404.69 50.3096C404.065 49.6845 403.217 49.3333 402.333 49.3333C401.449 49.3333 400.601 49.6845 399.976 50.3096C399.351 50.9347 399 51.7826 399 52.6666C399 53.5507 399.351 54.3985 399.976 55.0236C400.601 55.6488 401.449 56 402.333 56Z" fill="black"/>
</svg>
